<?xml version="1.0" encoding="iso-8859-1"?>
<!-- Generator: Adobe Illustrator 18.0.0, SVG Export Plug-In . SVG Version: 6.00 Build 0)  -->
<!DOCTYPE svg PUBLIC "-//W3C//DTD SVG 1.1//EN" "http://www.w3.org/Graphics/SVG/1.1/DTD/svg11.dtd">
<svg version="1.1" id="Capa_1" xmlns="http://www.w3.org/2000/svg" xmlns:xlink="http://www.w3.org/1999/xlink" x="0px" y="0px"
	 viewBox="0 0 297.862 297.862" style="enable-background:new 0 0 297.862 297.862;" xml:space="preserve">
<g>
	
	<path d="M67.613,9.394c2.148-2.149,2.148-5.633,0-7.782c-2.149-2.148-5.634-2.149-7.783,0L24.607,36.834
		c0,0-0.001,0.002-0.002,0.002c-0.249,0.249-0.469,0.516-0.66,0.797c-1.243,1.824-1.265,4.23-0.069,6.077
		c0.093,0.143,0.191,0.281,0.298,0.416c0.02,0.024,0.035,0.05,0.055,0.074c0.071,0.088,0.151,0.17,0.228,0.254
		c0.051,0.054,0.096,0.111,0.148,0.164c0,0,0,0,0.001,0v0.001L60.26,80.266c1.074,1.074,2.482,1.611,3.891,1.611
		c1.409,0,2.817-0.537,3.892-1.611c2.149-2.149,2.149-5.634-0.001-7.783L41.784,46.231h227.581c3.039,0,5.503-2.465,5.503-5.504
		s-2.464-5.502-5.503-5.502H41.782L67.613,9.394z" fill="rgb(183,174,191)"/>
	<path d="M230.25,288.467c-2.15,2.149-2.15,5.634,0,7.782c1.074,1.075,2.482,1.612,3.891,1.612s2.816-0.537,3.891-1.612
		l35.224-35.223c0,0,0.001-0.001,0.003-0.002c2.148-2.15,2.147-5.634-0.002-7.782l-35.654-35.641
		c-2.149-2.148-5.633-2.148-7.783,0.002c-2.148,2.148-2.147,5.633,0.002,7.782l26.256,26.245H28.497
		c-3.039,0-5.503,2.464-5.503,5.503c0,3.039,2.464,5.503,5.503,5.503H256.08L230.25,288.467z" fill="rgb(183,174,191)"/>
</g>
<g>
</g>
<g>
</g>
<g>
</g>
<g>
</g>
<g>
</g>
<g>
</g>
<g>
</g>
<g>
</g>
<g>
</g>
<g>
</g>
<g>
</g>
<g>
</g>
<g>
</g>
<g>
</g>
<g>
</g>
</svg>
