<?xml version="1.0" encoding="iso-8859-1"?>
<!-- Generator: Adobe Illustrator 18.0.0, SVG Export Plug-In . SVG Version: 6.00 Build 0)  -->
<!DOCTYPE svg PUBLIC "-//W3C//DTD SVG 1.1//EN" "http://www.w3.org/Graphics/SVG/1.1/DTD/svg11.dtd">
<svg version="1.1" id="Capa_1" xmlns="http://www.w3.org/2000/svg" xmlns:xlink="http://www.w3.org/1999/xlink" x="0px" y="0px"
	 viewBox="0 0 272.941 272.941" style="enable-background:new 0 0 272.941 272.941;" xml:space="preserve">
<g>
	
	<path d="M263.548,55.152c2.148,2.15,5.633,2.15,7.781,0c2.148-2.149,2.15-5.634,0-7.782l-35.223-35.223
		c0-0.001-0.002-0.002-0.002-0.002c-0.248-0.25-0.516-0.469-0.797-0.66c-1.824-1.244-4.23-1.266-6.076-0.07
		c-0.143,0.093-0.281,0.191-0.416,0.299c-0.025,0.018-0.051,0.035-0.074,0.055c-0.088,0.07-0.17,0.15-0.254,0.228
		c-0.055,0.051-0.111,0.096-0.164,0.148l0,0c-0.002,0-0.002,0-0.002,0L192.675,47.8c-1.074,1.074-1.611,2.482-1.611,3.891
		c0,1.409,0.537,2.817,1.611,3.893c2.15,2.148,5.635,2.148,7.783-0.002l26.252-26.258v227.582c0,3.039,2.465,5.502,5.504,5.502
		c3.039,0,5.502-2.463,5.502-5.502V29.321L263.548,55.152z" stroke="black"/>
	<path d="M9.394,217.79c-2.148-2.15-5.633-2.15-7.782,0c-2.148,2.148-2.149,5.633,0,7.781l35.223,35.223
		c0.001,0.002,0.002,0.002,0.002,0.002c0.249,0.25,0.517,0.469,0.797,0.66c1.824,1.244,4.23,1.266,6.077,0.07
		c0.143-0.092,0.281-0.191,0.416-0.299c0.024-0.018,0.051-0.035,0.074-0.055c0.088-0.07,0.17-0.15,0.254-0.229
		c0.055-0.051,0.111-0.096,0.164-0.148l0,0c0.001,0,0.001,0,0.001,0l35.648-35.654c1.074-1.074,1.611-2.482,1.611-3.891
		s-0.538-2.816-1.612-3.893c-2.149-2.148-5.634-2.148-7.782,0.002l-26.253,26.258V16.036c0-3.039-2.464-5.502-5.503-5.502
		c-3.039,0-5.503,2.463-5.503,5.502V243.62L9.394,217.79z" stroke="black"/>
</g>
<g>
</g>
<g>
</g>
<g>
</g>
<g>
</g>
<g>
</g>
<g>
</g>
<g>
</g>
<g>
</g>
<g>
</g>
<g>
</g>
<g>
</g>
<g>
</g>
<g>
</g>
<g>
</g>
<g>
</g>
</svg>
