<?xml version="1.0" encoding="iso-8859-1"?>
<!-- Generator: Adobe Illustrator 16.0.0, SVG Export Plug-In . SVG Version: 6.00 Build 0)  -->
<!DOCTYPE svg PUBLIC "-//W3C//DTD SVG 1.1//EN" "http://www.w3.org/Graphics/SVG/1.1/DTD/svg11.dtd">
<svg version="1.1" id="Capa_1" xmlns="http://www.w3.org/2000/svg" xmlns:xlink="http://www.w3.org/1999/xlink" x="0px" y="0px"
	 width="611.998px" height="611.998px" viewBox="0 0 611.998 611.998" style="enable-background:new 0 0 611.998 611.998;"
	 xml:space="preserve">
<g>
	<path d="M472.778,0H139.222c-27.428,0-49.692,22.25-49.692,49.678V562.32c0,27.428,22.25,49.678,49.692,49.678h333.555
		c27.441,0,49.692-22.25,49.692-49.678V49.678C522.471,22.265,500.206,0,472.778,0z M155.062,113.907
		c0-20.847,16.891-37.738,37.738-37.738h226.383c20.847,0,37.737,16.891,37.737,37.738v38.973c0,20.832-16.891,37.724-37.737,37.724
		H192.8c-20.847,0-37.738-16.892-37.738-37.724V113.907z M233.05,513.209c0,12.495-10.141,22.648-22.648,22.648h-36.475
		c-12.495,0-22.634-10.155-22.634-22.648v-38.97c0-12.495,10.141-22.634,22.634-22.634h36.475c12.509,0,22.648,10.141,22.648,22.634
		V513.209z M233.05,399.387c0,12.495-10.141,22.648-22.648,22.648h-36.475c-12.495,0-22.634-10.155-22.634-22.648V360.4
		c0-12.495,10.141-22.647,22.634-22.647h36.475c12.509,0,22.648,10.154,22.648,22.647V399.387z M233.05,285.563
		c0,12.495-10.141,22.647-22.648,22.647h-36.475c-12.495,0-22.634-10.155-22.634-22.647v-38.987
		c0-12.495,10.141-22.648,22.634-22.648h36.475c12.509,0,22.648,10.155,22.648,22.648C233.05,246.579,233.05,285.563,233.05,285.563
		z M346.886,513.209c0,12.495-10.141,22.648-22.634,22.648h-36.504c-12.495,0-22.634-10.155-22.634-22.648v-38.97
		c0-12.495,10.141-22.634,22.634-22.634h36.504c12.495,0,22.634,10.141,22.634,22.634V513.209z M346.886,399.387
		c0,12.495-10.141,22.648-22.634,22.648h-36.504c-12.495,0-22.634-10.155-22.634-22.648V360.4c0-12.495,10.141-22.647,22.634-22.647
		h36.504c12.495,0,22.634,10.154,22.634,22.647V399.387z M346.886,285.563c0,12.495-10.141,22.647-22.634,22.647h-36.504
		c-12.495,0-22.634-10.155-22.634-22.647v-38.987c0-12.495,10.141-22.648,22.634-22.648h36.504
		c12.495,0,22.634,10.155,22.634,22.648V285.563z M460.695,513.209c0,12.495-10.141,22.648-22.634,22.648h-36.476
		c-12.509,0-22.647-10.155-22.647-22.648v-38.97c0-12.495,10.141-22.634,22.647-22.634h36.476c12.495,0,22.634,10.141,22.634,22.634
		V513.209L460.695,513.209z M460.695,399.387c0,12.495-10.141,22.648-22.634,22.648h-36.476c-12.509,0-22.647-10.155-22.647-22.648
		V360.4c0-12.495,10.141-22.647,22.647-22.647h36.476c12.495,0,22.634,10.154,22.634,22.647V399.387L460.695,399.387z
		 M460.695,285.563c0,12.495-10.141,22.647-22.634,22.647h-36.476c-12.509,0-22.647-10.155-22.647-22.647v-38.987
		c0-12.495,10.141-22.648,22.647-22.648h36.476c12.495,0,22.634,10.155,22.634,22.648V285.563L460.695,285.563z"/>
</g>
<g>
</g>
<g>
</g>
<g>
</g>
<g>
</g>
<g>
</g>
<g>
</g>
<g>
</g>
<g>
</g>
<g>
</g>
<g>
</g>
<g>
</g>
<g>
</g>
<g>
</g>
<g>
</g>
<g>
</g>
</svg>
