<?xml version="1.0" encoding="iso-8859-1"?>
<!-- Generator: Adobe Illustrator 19.0.0, SVG Export Plug-In . SVG Version: 6.00 Build 0)  -->
<svg version="1.1" id="Capa_1" xmlns="http://www.w3.org/2000/svg" xmlns:xlink="http://www.w3.org/1999/xlink" x="0px" y="0px"
	 viewBox="0 0 420 420" style="enable-background:new 0 0 420 420;" xml:space="preserve">
<g>
	<path d="M210,21c104.216,0,189,84.784,189,189s-84.784,189-189,189S21,314.216,21,210S105.784,21,210,21 M210,0
		C94.031,0,0,94.024,0,210s94.031,210,210,210s210-94.024,210-210S325.969,0,210,0L210,0z"/>
	<path d="M293.909,187.215l-111.818-73.591C162.792,100.926,147,109.445,147,132.545V287.42c0,23.1,15.813,31.647,35.147,18.998
		L293.86,233.31C313.187,220.647,313.208,199.913,293.909,187.215z M279.006,217.868l-99.295,64.981
		c-6.44,4.221-11.711,1.372-11.711-6.328V143.437c0-7.7,5.264-10.535,11.697-6.3l99.33,65.366
		C285.46,206.731,285.453,213.647,279.006,217.868z"/>
</g>
<g>
</g>
<g>
</g>
<g>
</g>
<g>
</g>
<g>
</g>
<g>
</g>
<g>
</g>
<g>
</g>
<g>
</g>
<g>
</g>
<g>
</g>
<g>
</g>
<g>
</g>
<g>
</g>
<g>
</g>
</svg>
