<?xml version="1.0" encoding="iso-8859-1"?>
<!-- Generator: Adobe Illustrator 19.0.0, SVG Export Plug-In . SVG Version: 6.00 Build 0)  -->
<svg version="1.1" id="Capa_1" xmlns="http://www.w3.org/2000/svg" xmlns:xlink="http://www.w3.org/1999/xlink" x="0px" y="0px"
	 viewBox="0 0 420 420" style="enable-background:new 0 0 420 420;" xml:space="preserve">
<g>
	<path d="M210,21c104.216,0,189,84.784,189,189s-84.784,189-189,189S21,314.216,21,210S105.784,21,210,21 M210,0
		C94.031,0,0,94.024,0,210s94.031,210,210,210s210-94.024,210-210S325.969,0,210,0L210,0z"/>
	<path d="M276.066,108.941H143.941c-19.25,0-35,15.75-35,35v132.125c0,19.25,15.75,35,35,35h132.125c19.25,0,35-15.75,35-35V143.941
		C311.066,124.691,295.316,108.941,276.066,108.941z M290.066,269.066c0,11.55-9.45,21-21,21H150.941c-11.55,0-21-9.45-21-21
		V150.941c0-11.55,9.45-21,21-21h118.125c11.55,0,21,9.45,21,21V269.066z"/>
</g>
<g>
</g>
<g>
</g>
<g>
</g>
<g>
</g>
<g>
</g>
<g>
</g>
<g>
</g>
<g>
</g>
<g>
</g>
<g>
</g>
<g>
</g>
<g>
</g>
<g>
</g>
<g>
</g>
<g>
</g>
</svg>
